<?xml version="1.0" encoding="UTF-8" standalone="no"?>
<!-- Created with Inkscape (http://www.inkscape.org/) -->

<svg
   width="105.79067mm"
   height="141.66566mm"
   viewBox="0 0 105.79067 141.66566"
   version="1.1"
   id="svg1"
   xml:space="preserve"
   xmlns:inkscape="http://www.inkscape.org/namespaces/inkscape"
   xmlns:sodipodi="http://sodipodi.sourceforge.net/DTD/sodipodi-0.dtd"
   xmlns="http://www.w3.org/2000/svg"
   xmlns:svg="http://www.w3.org/2000/svg"><sodipodi:namedview
     id="namedview1"
     pagecolor="#505050"
     bordercolor="#eeeeee"
     borderopacity="1"
     inkscape:showpageshadow="0"
     inkscape:pageopacity="0"
     inkscape:pagecheckerboard="0"
     inkscape:deskcolor="#505050"
     inkscape:document-units="mm" /><defs
     id="defs1" /><g
     inkscape:label="Camada 1"
     inkscape:groupmode="layer"
     id="layer1"
     transform="translate(-45.729325,-63.082647)"><g
       id="g1"
       transform="matrix(0.42657531,0,0,0.42657531,-7.2086698,28.103474)"><g
         id="g2">
	<path
   style="fill:#deaa87;fill-opacity:1"
   d="m 372.1,326.4 c 0,68.5 -55.5,87.7 -124,87.7 -68.5,0 -124,-19.3 -124,-87.7 0,-68.5 55.5,-160.2 124,-160.2 68.5,0 124,91.8 124,160.2 z"
   id="path2" />
	<polygon
   style="fill:#deaa87;fill-opacity:1"
   points="216.2,82 216.2,92.9 188.6,92.9 188.6,112 228.6,161.9 245.3,161.9 248.8,161.9 265.5,161.9 305.5,112 305.5,92.9 277.9,92.9 277.9,82 248.8,82 245.3,82 "
   id="polygon2" />
</g><g
         id="g7">
	<polygon
   style="fill:#a05a2c"
   points="277.9,92.9 251.9,156.9 293.9,92.9 "
   id="polygon3" />
	<polygon
   style="fill:#a05a2c"
   points="216.2,92.9 242.4,156.9 200.4,92.9 "
   id="polygon4" />
	<polygon
   style="fill:#a05a2c"
   points="228.9,194 245.7,176.5 218.5,194 "
   id="polygon5" />
	<polygon
   style="fill:#a05a2c"
   points="268.6,194 251.8,176.5 278.9,194 "
   id="polygon6" />
	<path
   style="fill:#f59e0b;fill-opacity:1"
   d="m 271.7,166.9 c 0,3 -2.4,5.4 -5.4,5.4 h -37.2 c -3,0 -5.4,-2.4 -5.4,-5.4 v 0 c 0,-3 2.4,-5.4 5.4,-5.4 h 37.2 c 3,0 5.4,2.4 5.4,5.4 z"
   id="path6" />
	<polygon
   style="fill:#a05a2c"
   points="243.1,82 251.9,82 246.9,154.3 "
   id="polygon7" />
	<path
   style="fill:#15803d;fill-opacity:1"
   d="m 293.3,260.9 c 0,8.6 -9.8,14.8 -10.4,14 -7.3,-8.5 -19.8,-14.8 -32.5,-14.8 -12.9,0 -20.8,5.8 -20.8,14.4 0,10 10.6,12.7 25.4,16 17.7,3.8 40.9,11 40.9,36.1 0,19.4 -13.5,32.9 -36,36.3 v 7.5 c 0,8.8 -3.5,13.1 -11.1,13.1 h -1 c -8.1,0 -11,-4 -11,-13.1 v -7.1 c -23.3,-2.5 -36.5,-13.1 -36.5,-23.8 0,-8.3 9.2,-14.2 10,-13.5 7.3,8.8 21.5,16.1 36.5,16.1 13.7,0 21.5,-5.8 21.5,-14.4 0,-10.6 -11.9,-13.5 -26,-16.7 -16.9,-3.7 -39.2,-10.4 -39.2,-35.8 0,-18.5 13.1,-31.7 33.8,-35.6 v -7.1 c 0,-8.8 3.3,-13.1 11,-13.1 h 1.2 c 7.9,0 11,4 11,13.1 v 6.5 c 21.5,2.4 33.2,12 33.2,21.9 z"
   id="path7" />
</g></g></g></svg>
