<?xml version="1.0" encoding="UTF-8" standalone="no"?>
<!-- Created with Inkscape (http://www.inkscape.org/) -->

<svg
   width="343.51981mm"
   height="237.29779mm"
   viewBox="0 0 343.51981 237.29779"
   version="1.1"
   id="svg1"
   xml:space="preserve"
   sodipodi:docname="products.svg"
   xmlns:inkscape="http://www.inkscape.org/namespaces/inkscape"
   xmlns:sodipodi="http://sodipodi.sourceforge.net/DTD/sodipodi-0.dtd"
   xmlns="http://www.w3.org/2000/svg"
   xmlns:svg="http://www.w3.org/2000/svg"><sodipodi:namedview
     id="namedview1"
     pagecolor="#505050"
     bordercolor="#eeeeee"
     borderopacity="1"
     inkscape:showpageshadow="0"
     inkscape:pageopacity="0"
     inkscape:pagecheckerboard="0"
     inkscape:deskcolor="#505050"
     inkscape:document-units="mm"
     showgrid="false" /><defs
     id="defs1" /><g
     id="layer1"
     transform="translate(424.69853,-61.162451)"><g
       style="fill:#000000"
       id="g1"
       transform="matrix(1.6536458,0,0,1.6536458,-445.41871,77.890216)"
       inkscape:export-filename="products.svg"
       inkscape:export-xdpi="96"
       inkscape:export-ydpi="96"><g
         id="SVGRepo_bgCarrier"
         stroke-width="0" /><g
         id="SVGRepo_tracerCarrier"
         stroke-linecap="round"
         stroke-linejoin="round" /><g
         id="SVGRepo_iconCarrier"><radialGradient
           id="IconifyId17ecdb2904d178eab8875"
           cx="64.586998"
           cy="-7.8720002"
           r="83.127998"
           gradientUnits="userSpaceOnUse"><stop
             offset=".447"
             stop-color="#f59e0b"
             id="stop1" /><stop
             offset=".59"
             stop-color="#f59e0b"
             id="stop2" /><stop
             offset=".794"
             stop-color="#f3a814"
             id="stop3" /><stop
             offset=".921"
             stop-color="#f59e0b"
             id="stop4" /></radialGradient><path
           d="M 29.46,59.86 26.84,54.17 20.43,29.25 18.8,25.37 21.15,19.59 c 0,0 3.33,0.47 5.87,3.34 3.09,3.5 8.13,13.97 8.13,13.97 l -1.06,-8.26 5.75,-14.91 c 0,0 2.52,-0.27 3.19,0.42 1.19,1.22 3.22,9.78 3.94,12.49 0.72,2.71 1.72,6.41 2.98,8.03 1.26,1.62 2.8,1.99 2.8,1.99 l 4.51,-17.42 1.08,-15.8 c 0,0 1.58,-0.01 3.79,0.45 1.67,0.35 2.79,0.92 3.33,1.59 0.54,0.67 0.56,11.32 0.56,11.32 0,0 9.53,-8.12 9.84,-8.03 0.66,0.18 2.71,0.63 3.79,1.81 1.08,1.17 0.18,5.51 -0.63,8.4 -0.81,2.89 -3.61,12.28 -3.61,12.28 l 2.53,-0.96 0.56,0.54 4.71,-7.23 c 0,0 1.7,-0.01 3.08,0.67 1.5,0.74 2.4,2.56 2.4,2.56 l 12.1,-17.51 c 0,0 0.92,0.82 1.73,1.63 0.81,0.81 1.38,1.38 1.42,2.2 0.04,0.81 -2.88,6.2 -4.23,8.91 -1.35,2.71 -3.61,8.13 -3.61,8.13 l 9.84,-7.51 c 0,0 3.26,0.46 3.36,1.54 0.09,1.08 -1.64,3.08 -3.36,6.06 -1.72,2.98 -4.6,8.76 -5.6,10.74 -1,1.98 0.36,2.08 0.36,2.08 l 11.79,-7.45 c 0,0 2.54,0.52 2.78,1.7 0.27,1.35 -2.65,4.04 -4.55,6.2 -1.9,2.17 -5.96,7.4 -8.03,11.47 -2.07,4.07 -3.46,6.61 -3.46,6.61 L 81.28,79.45 33.52,76.56 Z"
           fill="url(#IconifyId17ecdb2904d178eab8875)"
           id="path4"
           style="fill:#f59e0b;fill-opacity:1" /><path
           d="m 89.17,40.2 c -1.2,0.28 -4.99,6.84 -8.53,16.82 -2.13,6 -3.54,12.56 -3.46,15.7 0.08,3.14 4.82,2.18 4.82,2.18 l 2.01,-6.52 c 0,0 2.25,-7.65 4.91,-13.36 3.11,-6.7 7.14,-10.96 6.84,-11.99 -0.4,-1.38 -4.9,-3.23 -6.59,-2.83 z"
           fill="#fcd34d"
           id="path5" /><path
           d="m 101.08,23.14 c -1.68,0.98 -5.47,7.32 -6.6,9.74 -1.13,2.42 -1.17,6.97 0.07,7.56 1.53,0.72 3.23,-4.42 5.81,-8.69 2.58,-4.27 5.63,-9.1 5.63,-9.1 0,0 -2.98,-0.64 -4.91,0.49 z"
           fill="#fcd34d"
           id="path6" /><path
           d="m 107.44,35.7 c -2.57,1.09 -7.36,6.2 -9.02,8.77 -3.06,4.75 -5.31,10.06 -6.12,12.23 -0.8,2.17 -1.45,5.15 1.05,3.78 2.5,-1.37 5.71,-7.81 9.82,-13.6 4.76,-6.72 9.34,-11.27 9.34,-11.27 0,0 -2.98,-0.8 -5.07,0.09 z"
           fill="#fcd34d"
           id="path7" /><path
           d="m 96.65,7.04 c -0.99,-0.12 -3.7,7.08 -5.23,10.54 -1.53,3.46 -3.57,8.04 -3.57,8.04 0,0 -1.18,9.11 0.51,9.27 1.69,0.16 5,-10.95 7.47,-16.04 2.41,-4.96 4.95,-9.55 4.95,-9.55 0,0 -2.2,-2.02 -4.13,-2.26 z"
           fill="#fcd34d"
           id="path8" /><path
           d="m 78.85,25.08 c -0.89,0.94 -0.39,5.78 -0.39,5.78 0,0 3.46,2.58 4.11,2.01 0.65,-0.57 0.68,-9.31 0.68,-9.31 0,0 -2.95,-0.01 -4.4,1.52 z"
           fill="#fcd34d"
           id="path9" /><path
           d="m 71.7,31.67 c -1.25,1.05 -0.4,5.97 -0.72,10.38 -0.48,6.6 -2.41,20.12 -2.98,24.07 -0.57,3.95 -1.13,8.29 -1.13,8.29 l 6.2,-0.97 c 0,0 2.41,-18.43 3.38,-25.52 0.97,-7.09 2.41,-17.14 1.45,-17.71 -0.97,-0.55 -4.67,0.17 -6.2,1.46 z"
           fill="#fcd34d"
           id="path10" /><path
           d="m 70.95,8.16 c -1.58,0.3 -4.92,8.64 -4.92,8.64 0,0 -0.2,6.02 -0.2,8.92 0,2.9 -0.56,6.36 0.4,6.36 0.96,0 2.82,-5.55 4.75,-10.38 1.93,-4.83 4.89,-12.93 4.89,-12.93 0,0 -2.68,-1.03 -4.92,-0.61 z"
           fill="#fcd34d"
           id="path11" /><path
           d="m 52.78,5.11 c -1.09,1.15 0.64,4.11 0.8,12.23 0.16,8.13 -0.84,19.31 -0.84,19.31 0,0 0.86,-0.06 1.4,1.61 0.46,1.41 1.21,9.98 2.17,9.66 0.97,-0.32 2.17,-6.04 3.14,-15.7 0.97,-9.66 0.56,-17.14 0.24,-20.2 -0.32,-3.06 -1.36,-8.6 -1.36,-8.6 0,0 -3.94,0 -5.55,1.69 z"
           fill="#fcd34d"
           id="path12" /><path
           d="m 39.84,13.73 c 0,0 -4.65,0.33 -5.93,2.83 -1.29,2.5 -0.88,3.71 -0.64,6.12 0.24,2.41 1,7.22 1,7.22 0,0 4.27,5.31 6.6,4.02 2.33,-1.28 -1.03,-20.19 -1.03,-20.19 z"
           fill="#fcd34d"
           id="path13" /><path
           d="m 21.15,19.59 c 0,0 -2.58,-0.48 -4.11,-0.16 -1.53,0.32 -1.45,1.77 -0.72,2.74 0.72,0.97 4.05,6.99 4.05,6.99 0,0 0.99,0.02 2.28,0.5 1.29,0.48 3.5,1.68 3.41,-0.25 -0.16,-3.37 -4.91,-9.82 -4.91,-9.82 z"
           fill="#fcd34d"
           id="path14" /><path
           d="m 28.42,57.6 c 0,0 -4.86,-9.83 -8.48,-15.23 -3.62,-5.4 -7.41,-9.58 -7.41,-10.46 0,-0.89 2.5,-1.77 3.94,-2.17 1.44,-0.4 3.95,-0.49 3.95,-0.49 0,0 5.95,10.06 8.37,15.54 2.42,5.48 4.67,11.86 4.11,12.64 -0.51,0.7 -4.12,0.23 -4.48,0.17 z"
           fill="#fcd34d"
           id="path15" /><path
           d="m 31.69,40.04 c -0.38,1.41 1.45,7.81 2.58,12.4 1.13,4.59 2.5,9.42 2.5,9.42 l 3.86,7.89 4.27,-1.53 c 0,0 -2.25,-4.35 -3.54,-8.85 C 40.07,54.85 38.4,40.83 36.68,39 c -1.2,-1.29 -4.74,0.16 -4.99,1.04 z"
           fill="#fcd34d"
           id="path16" /><path
           d="m 45.06,38.43 c -1.01,0.66 0.56,11.35 1.37,15.78 0.81,4.43 2.5,9.1 3.38,11.27 0.89,2.17 3.46,7.65 3.46,7.65 0,0 2.66,3.14 2.74,2.82 0.08,-0.32 1.21,-4.27 1.21,-4.27 0,0 -3.55,-10.47 -4.12,-14.98 -0.56,-4.51 -1.45,-18.19 -2.33,-18.67 -0.88,-0.48 -4.1,-0.64 -5.71,0.4 z"
           fill="#fcd34d"
           id="path17" /><path
           d="M 63.01,38.67 C 61.8,39.79 60.6,54.61 60.11,60.08 59.62,65.55 59.22,73.6 59.22,73.6 l 5.39,-0.4 c 0,0 2.01,-19.88 2.33,-22.46 0.32,-2.58 1.77,-8.45 1.05,-10.79 -0.72,-2.32 -3.94,-2.24 -4.98,-1.28 z"
           fill="#fcd34d"
           id="path18" /><path
           d="m 26.82,59.43 c -0.34,0.77 10.17,58.28 10.34,59.14 0.17,0.86 -0.17,1.64 1.46,2.41 1.64,0.77 4.2,1.18 5.84,1.36 1.64,0.17 12.93,0.19 13.02,-1.18 0.09,-1.38 33.84,-50.54 33.84,-50.54 0,0 6.22,-10.43 5.79,-11.29 -0.43,-0.86 -2.11,-0.46 -3.94,0.79 -1.83,1.26 -3.52,4.37 -8.66,7.82 -5.57,3.74 -12.95,4.53 -20.37,4.44 -6.84,-0.09 -14.97,-1.33 -20.79,-5.64 -5.12,-3.8 -6.63,-6.54 -11.19,-7.75 -4.02,-1.07 -5.34,0.44 -5.34,0.44 z"
           fill="#f87171"
           id="path19"
           style="fill:#dc2626;fill-opacity:1" /><path
           d="m 34.77,63.19 9.54,59.17 c 0,0 11.37,1.64 20.23,1.81 8.87,0.17 19.44,-1.68 19.44,-1.68 l 7.68,-25.96 6.52,-34.25 c 0,0 -1.61,-1.61 -3.42,-0.28 -1.39,1.02 -5.68,7.66 -13.26,10.59 -8.55,3.3 -23.96,3.54 -33.58,-0.52 C 39.1,68.36 36.41,63.53 34.77,63.19 Z"
           fill="#dc2626"
           id="path20" /><path
           d="m 89.51,120.67 c -1.94,1.16 -6.46,1.94 -6.46,1.94 0,0 4.48,-21.78 6.97,-33.15 2.49,-11.37 6.08,-30.6 6.08,-30.6 0,0 1.44,-0.23 2.92,-0.05 1.68,0.21 2.68,0.7 3.02,1.23 0.55,0.86 -2.76,16.92 -6,32.6 -2.96,14.4 -5.5,27.42 -6.53,28.03 z"
           fill="#991b1b"
           id="path21" /></g></g><g
       id="g2"
       transform="matrix(0.69255679,0,0,0.79835536,-209.04365,77.5614)"><path
         fill="#eae1dc"
         d="m 163.2015,-18.527672 c -2.50852,-2.509045 -6.57622,-2.509045 -9.08474,0 L 112.57903,23.339994 C 102.98418,32.93458 97.173669,45.305173 95.894937,58.640702 l 12.912723,0.100277 c 0.018,-0.147372 0.0392,-0.294216 0.0585,-0.441589 1.28561,-9.7663 5.71579,-18.79256 12.79789,-25.874662 l 41.53773,-41.8676665 c 0.8464,-0.8464025 1.40018,-1.8713975 1.67561,-2.9530145 0.54054,-2.124075 -0.0132,-4.469342 -1.67587,-6.131719 z"
         id="path1"
         style="fill:#e6e6e6;fill-opacity:1;stroke:#cccccc;stroke-width:0.264583" /><path
         fill="#ee2625"
         d="M 111.08109,84.446307 H 97.70636 44.874275 l 0.02369,0.340341 11.505916,164.310242 c 0.277085,3.95707 3.055924,7.18212 6.739007,8.20341 h 62.766372 c 4.8633,0 8.89757,-3.73227 9.23442,-8.54375 l 11.48223,-163.969902 0.0237,-0.340341 z"
         id="path2"
         style="fill:#dc2626;fill-opacity:1;stroke:none;stroke-width:0.274286" /><path
         fill="#d82525"
         d="M 156.79805,77.999852 H 143.46464 108.47323 95.625327 44.050363 l 0.823912,11.865504 h 50.750787 12.847898 34.16777 l -0.0228,0.329671 -11.02995,158.829373 c -0.32358,4.66064 -4.19894,8.2759 -8.87068,8.2759 H 62.423294 c 0.763852,0.21352 1.567392,0.32967 2.397125,0.32967 h 70.986121 9.98273 c 4.67175,0 8.5471,-3.61526 8.87068,-8.2759 l 11.05271,-159.159043 0.84693,-12.195175 z"
         id="path3"
         style="fill:#991b1b;fill-opacity:1;stroke:none;stroke-width:0.264583" /><path
         fill="#ea3c2f"
         d="M 183.77206,72.961127 176.7524,59.426631 c -0.023,-0.04445 -0.0524,-0.08361 -0.0773,-0.126471 -0.13706,-0.238389 -0.29501,-0.460375 -0.47969,-0.655637 -0.64241,-0.678656 -1.54384,-1.0795 -2.50587,-1.0795 H 108.4809 95.632735 34.533301 c -1.422665,0 -2.699809,0.87339 -3.215482,2.199481 l -4.925483,12.6619 -0.33946,0.872596 c -0.740834,1.904206 0.327818,3.928004 2.131218,4.522523 0.338667,0.111654 0.700617,0.178593 1.084263,0.178593 h 2.10476 12.677246 51.574699 12.847898 34.99168 13.33341 9.76127 14.14992 c 2.58736,-2.64e-4 4.25424,-2.742141 3.06282,-5.038989 z"
         id="path6-9"
         style="fill:#dc2626;fill-opacity:1;stroke:#dc2626;stroke-width:0.937361;stroke-dasharray:none;stroke-opacity:1" /></g><g
       id="g18"
       transform="matrix(1.3056863,0,0,1.3056863,-793.79016,99.991197)"><g
         id="g17"
         transform="translate(317.5,-58.208332)"><g
           id="g10"><path
             id="rect2"
             style="fill:#d97706;fill-opacity:1;stroke-width:0.460644"
             d="M 41.111412,195.75047 H 168.82435 c 2.13609,0 3.85576,1.71967 3.85576,3.85577 v 6.74995 c 0,2.13609 -1.71967,3.85576 -3.85576,3.85576 H 41.111412 c -2.136095,0 -3.855766,-1.71967 -3.855766,-3.85576 v -6.74995 c 0,-2.1361 1.719671,-3.85577 3.855766,-3.85577 z" /><path
             id="rect2-6"
             style="fill:#f59e0b;fill-opacity:1;stroke-width:0.450968"
             d="M 40.729703,195.75095 H 162.81777 c 2.13603,0 3.85564,1.71961 3.85564,3.85563 v 6.74973 c 0,2.13602 -1.71961,3.85564 -3.85564,3.85564 H 40.729703 c -2.136023,0 -3.855638,-1.71962 -3.855638,-3.85564 v -6.74973 c 0,-2.13602 1.719615,-3.85563 3.855638,-3.85563 z" /></g><g
           id="g16"><path
             id="rect3"
             style="fill:#5aa064;stroke-width:0.472001"
             d="M 47.177625,162.35022 H 164.75751 c 1.56647,0 2.82756,1.26109 2.82756,2.82756 v 2.34243 c 0,1.56647 -1.26109,2.82756 -2.82756,2.82756 H 47.177625 c -1.566469,0 -2.827562,-1.26109 -2.827562,-2.82756 v -2.34243 c 0,-1.56647 1.261093,-2.82756 2.827562,-2.82756 z" /><path
             id="rect3-5"
             style="fill:#66b571;stroke-width:0.350767"
             d="m 102.36578,162.34978 h 62.40004 c 1.56655,0 2.82772,1.26116 2.82772,2.82772 v 2.34256 c 0,1.56655 -1.26117,2.82772 -2.82772,2.82772 h -62.40004 c -1.56656,0 -2.827725,-1.26117 -2.827725,-2.82772 v -2.34256 c 0,-1.56656 1.261165,-2.82772 2.827725,-2.82772 z" /><path
             id="rect3-1-4"
             transform="matrix(1.0042536,0,0,1,-0.43369376,0.73335105)"
             d="m 44.609281,166.01915 h 56.079139 a 1.2704863,1.2704863 45 0 1 1.27049,1.27049 v 2.30544 a 0.01933085,0.01933085 135 0 1 -0.0193,0.0193 H 47.375213 a 2.7788886,2.7788886 45 0 1 -2.778889,-2.77889 v -0.80338 a 0.01298671,0.01298671 135 0 1 0.01299,-0.013 z"
             style="fill:#66b571;fill-opacity:1;stroke:none;stroke-width:0.21601" /><path
             id="rect3-1"
             transform="matrix(1.0002788,0,0,0.89342836,-0.04484636,18.500847)"
             d="m 99.57932,165.93065 h 61.31008 a 0.0141172,0.0141172 45 0 1 0.0141,0.0141 v 1.91057 a 2.1058467,2.1058467 135 0 1 -2.10585,2.10585 h -56.41848 a 2.8256775,2.8256775 45 0 1 -2.825677,-2.82568 v -1.17905 a 0.02580699,0.02580699 135 0 1 0.02581,-0.0258 z"
             style="fill:#74cd80;fill-opacity:1;stroke:none;stroke-width:0.23642" /></g><g
           id="g12"
           transform="matrix(1.0000029,0,0,1,-1.1370387e-4,0.29983606)"><path
             id="rect4"
             style="fill:#991b1b;fill-opacity:0.6;stroke-width:0.472001"
             d="M 40.418383,170.02116 H 170.78969 c 0.94345,0 1.70297,0.75953 1.70297,1.70297 v 4.2281 c 0,0.94344 -0.75952,1.70296 -1.70297,1.70296 H 40.418383 c -0.943442,0 -1.702963,-0.75952 -1.702963,-1.70296 v -4.2281 c 0,-0.94344 0.759521,-1.70297 1.702963,-1.70297 z" /><path
             id="rect4-7"
             style="fill:#ef4444;fill-opacity:1;stroke-width:0.46066"
             d="M 40.349003,170.02119 H 164.36964 c 0.94344,0 1.70296,0.75952 1.70296,1.70296 v 4.22809 c 0,0.94344 -0.75952,1.70295 -1.70296,1.70295 H 40.349003 c -0.943438,0 -1.702957,-0.75951 -1.702957,-1.70295 v -4.22809 c 0,-0.94344 0.759519,-1.70296 1.702957,-1.70296 z" /></g><g
           id="g11"
           transform="translate(0,0.10035681)"><path
             id="rect5"
             style="fill:#563525;fill-opacity:1;stroke-width:0.472889"
             d="M 41.738106,177.8438 H 168.52998 c 2.2785,0 4.11281,1.83431 4.11281,4.11281 v 9.58621 c 0,2.2785 -1.83431,4.11282 -4.11281,4.11282 H 41.738106 c -2.2785,0 -4.112816,-1.83432 -4.112816,-4.11282 v -9.58621 c 0,-2.2785 1.834316,-4.11281 4.112816,-4.11281 z" /><path
             id="rect5-5"
             style="fill:#674636;fill-opacity:1;stroke-width:0.462286"
             d="M 41.685149,177.84364 H 162.48924 c 2.27852,0 4.11286,1.83434 4.11286,4.11286 v 9.58629 c 0,2.27852 -1.83434,4.11285 -4.11286,4.11285 H 41.685149 c -2.278521,0 -4.112853,-1.83433 -4.112853,-4.11285 v -9.58629 c 0,-2.27852 1.834332,-4.11286 4.112853,-4.11286 z" /></g><g
           id="g15"
           transform="translate(0.00292326,-0.03435)"><path
             style="fill:#563525;fill-opacity:1;stroke:none;stroke-width:0.554856"
             d="m 70.254167,177.97835 c 18.974561,18.449 19.123968,21.39014 39.635273,0 z"
             id="path5-8" /><path
             style="fill:#f59e0b;fill-opacity:1;stroke:none;stroke-width:0.471148"
             d="m 70.254167,177.97835 c 18.974429,13.30239 19.123835,15.42306 39.635003,0 z"
             id="path5-0" /></g><g
           id="g14"
           transform="matrix(0.99925118,7.6027611e-4,-7.6084563e-4,0.99999971,0.13995872,0.43447986)"
           style="stroke-width:0.999849;stroke-dasharray:none"><path
             id="rect1"
             d="m 70.236348,130.0955 73.145142,0.46866 c 14.72793,1.65691 26.28862,15.16635 28.53153,26.05983 0.56667,2.42642 -0.16752,4.59768 -2.90211,5.15732 L 41.881391,161.9337 c -2.772132,-0.51338 -3.883513,-2.54238 -3.127652,-4.97585 3.296773,-12.16725 12.24867,-24.46304 31.482609,-26.86235 z"
             style="fill:#d97706;fill-opacity:1;stroke:none;stroke-width:0.999849;stroke-dasharray:none" /><path
             id="rect1-5"
             d="m 68.706884,130.0957 69.269646,0.46866 c 13.94759,1.6569 24.89575,15.16625 27.01983,26.05966 0.53664,2.42641 -0.15865,4.59765 -2.74835,5.15729 L 41.854271,161.9337 c -2.625252,-0.51338 -3.677747,-2.54237 -2.961936,-4.97582 3.122096,-12.16717 11.599692,-24.46288 29.814549,-26.86218 z"
             style="fill:#f59e0b;fill-opacity:1;stroke:none;stroke-width:0.999849;stroke-dasharray:none" /><path
             id="rect10"
             style="fill:#fde68a;fill-opacity:1;stroke-width:0.999849;stroke-dasharray:none"
             d="m 142.57868,138.18132 c 1.12519,0 2.03103,0.90584 2.03103,2.03103 v 1.93122 c 0,1.12519 -0.90584,2.03103 -2.03103,2.03103 -1.12519,0 -2.03103,-0.90584 -2.03103,-2.03103 v -1.93122 c 0,-1.12519 0.90584,-2.03103 2.03103,-2.03103 z" /><path
             id="rect10-1"
             style="fill:#fde68a;fill-opacity:1;stroke-width:0.999849;stroke-dasharray:none"
             d="m 152.79465,144.41364 c 1.12519,0 2.03103,0.90583 2.03103,2.03102 v 1.93123 c 0,1.12519 -0.90584,2.03103 -2.03103,2.03103 -1.12519,0 -2.03102,-0.90584 -2.03102,-2.03103 v -1.93123 c 0,-1.12519 0.90583,-2.03102 2.03102,-2.03102 z" /><path
             id="rect10-8"
             style="fill:#fde68a;fill-opacity:1;stroke-width:0.999849;stroke-dasharray:none"
             d="m 137.42434,152.07903 c 1.12519,0 2.03102,0.90583 2.03102,2.03102 v 1.93123 c 0,1.12519 -0.90583,2.03103 -2.03102,2.03103 -1.12519,0 -2.03103,-0.90584 -2.03103,-2.03103 v -1.93123 c 0,-1.12519 0.90584,-2.03102 2.03103,-2.03102 z" /><path
             id="rect10-3"
             style="fill:#fde68a;fill-opacity:1;stroke-width:0.999849;stroke-dasharray:none"
             transform="scale(-1,1)"
             d="m -61.835322,138.05429 c 1.125189,0 2.031026,0.90584 2.031026,2.03103 v 1.93123 c 0,1.12518 -0.905837,2.03102 -2.031026,2.03102 -1.125189,0 -2.031026,-0.90584 -2.031026,-2.03102 v -1.93123 c 0,-1.12519 0.905837,-2.03103 2.031026,-2.03103 z" /><path
             id="rect10-3-6"
             style="fill:#fde68a;fill-opacity:1;stroke-width:0.999849;stroke-dasharray:none"
             transform="scale(-1,1)"
             d="m -78.5889,137.84424 c 1.125189,0 2.031026,0.90584 2.031026,2.03102 v 1.93123 c 0,1.12519 -0.905837,2.03103 -2.031026,2.03103 -1.125189,0 -2.031026,-0.90584 -2.031026,-2.03103 v -1.93123 c 0,-1.12518 0.905837,-2.03102 2.031026,-2.03102 z" /><path
             id="rect10-3-2"
             style="fill:#fde68a;fill-opacity:1;stroke-width:0.999849;stroke-dasharray:none"
             transform="scale(-1,1)"
             d="m -84.893717,151.24857 c 1.125188,0 2.031026,0.90583 2.031026,2.03102 v 1.93123 c 0,1.12519 -0.905838,2.03103 -2.031026,2.03103 -1.125189,0 -2.031027,-0.90584 -2.031027,-2.03103 v -1.93123 c 0,-1.12519 0.905838,-2.03102 2.031027,-2.03102 z" /><path
             id="rect10-3-27"
             style="fill:#fde68a;fill-opacity:1;stroke-width:0.999849;stroke-dasharray:none"
             transform="scale(-1,1)"
             d="m -94.556193,138.1606 c 1.125189,0 2.031026,0.90584 2.031026,2.03103 v 1.93122 c 0,1.12519 -0.905837,2.03103 -2.031026,2.03103 -1.125188,0 -2.031026,-0.90584 -2.031026,-2.03103 v -1.93122 c 0,-1.12519 0.905838,-2.03103 2.031026,-2.03103 z" /><path
             id="rect10-3-6-5"
             style="fill:#fde68a;fill-opacity:1;stroke-width:0.999849;stroke-dasharray:none"
             d="m 126.40526,138.23792 c 1.12519,0 2.03103,0.90583 2.03103,2.03102 v 1.93123 c 0,1.12519 -0.90584,2.03103 -2.03103,2.03103 -1.12519,0 -2.03102,-0.90584 -2.03102,-2.03103 v -1.93123 c 0,-1.12519 0.90583,-2.03102 2.03102,-2.03102 z" /><path
             id="rect10-3-2-1"
             style="fill:#fde68a;fill-opacity:1;stroke-width:0.999849;stroke-dasharray:none"
             d="m 120.10045,151.64224 c 1.12518,0 2.03102,0.90584 2.03102,2.03103 v 1.93123 c 0,1.12519 -0.90584,2.03102 -2.03102,2.03102 -1.12519,0 -2.03103,-0.90583 -2.03103,-2.03102 v -1.93123 c 0,-1.12519 0.90584,-2.03103 2.03103,-2.03103 z" /><path
             id="rect10-3-27-9"
             style="fill:#fde68a;fill-opacity:1;stroke-width:0.999849;stroke-dasharray:none"
             d="m 110.18094,138.29723 c 1.12518,0 2.03102,0.90583 2.03102,2.03102 v 1.93123 c 0,1.12519 -0.90584,2.03103 -2.03102,2.03103 -1.12519,0 -2.03103,-0.90584 -2.03103,-2.03103 v -1.93123 c 0,-1.12519 0.90584,-2.03102 2.03103,-2.03102 z" /><path
             id="rect10-3-27-9-6"
             style="fill:#fde68a;fill-opacity:1;stroke-width:0.999849;stroke-dasharray:none"
             d="m 102.36278,150.81827 c 1.12519,0 2.03103,0.90584 2.03103,2.03102 v 1.93123 c 0,1.12519 -0.90584,2.03103 -2.03103,2.03103 -1.12519,0 -2.03102,-0.90584 -2.03102,-2.03103 v -1.93123 c 0,-1.12518 0.90583,-2.03102 2.03102,-2.03102 z" /><path
             id="rect10-1-4"
             style="fill:#fde68a;fill-opacity:1;stroke-width:0.999849;stroke-dasharray:none"
             transform="scale(-1,1)"
             d="m -51.619296,144.28661 c 1.125189,0 2.031027,0.90583 2.031027,2.03102 v 1.93123 c 0,1.12519 -0.905838,2.03103 -2.031027,2.03103 -1.125188,0 -2.031026,-0.90584 -2.031026,-2.03103 v -1.93123 c 0,-1.12519 0.905838,-2.03102 2.031026,-2.03102 z" /><path
             id="rect10-8-7"
             style="fill:#fde68a;fill-opacity:1;stroke-width:0.999849;stroke-dasharray:none"
             transform="scale(-1,1)"
             d="m -66.989764,151.952 c 1.125189,0 2.031027,0.90583 2.031027,2.03102 v 1.93123 c 0,1.12519 -0.905838,2.03103 -2.031027,2.03103 -1.125188,0 -2.031026,-0.90584 -2.031026,-2.03103 v -1.93123 c 0,-1.12519 0.905838,-2.03102 2.031026,-2.03102 z" /></g></g></g></g></svg>
